<svg xmlns="http://www.w3.org/2000/svg" width="81" height="81" viewBox="0 0 81 81">
  <g id="Group_209" data-name="Group 209" transform="translate(-922 -3475)">
    <circle id="Ellipse_35" data-name="Ellipse 35" cx="40.5" cy="40.5" r="40.5" transform="translate(922 3475)" fill="#ccf9e8"/>
    <path id="Icon_awesome-cart-plus" data-name="Icon awesome-cart-plus" d="M31.588,20.028H13.242l.41,2h16.8a1.5,1.5,0,0,1,1.465,1.835l-.345,1.519a3.506,3.506,0,1,1-3.98.651H14.468a3.5,3.5,0,1,1-4.2-.536L5.876,4.006H1.5A1.5,1.5,0,0,1,0,2.5v-1A1.5,1.5,0,0,1,1.5,0H7.919A1.5,1.5,0,0,1,9.391,1.2l.574,2.8H34.547a1.5,1.5,0,0,1,1.465,1.835L33.053,18.858A1.5,1.5,0,0,1,31.588,20.028Zm-6.053-9.513h-3v-2.5a1,1,0,0,0-1-1h-1a1,1,0,0,0-1,1v2.5h-3a1,1,0,0,0-1,1v1a1,1,0,0,0,1,1h3v2.5a1,1,0,0,0,1,1h1a1,1,0,0,0,1-1v-2.5h3a1,1,0,0,0,1-1v-1A1,1,0,0,0,25.535,10.515Z" transform="translate(944 3499)" fill="#00e18a"/>
  </g>
</svg>
