<svg xmlns="http://www.w3.org/2000/svg" width="81" height="81" viewBox="0 0 81 81">
  <g id="Group_211" data-name="Group 211" transform="translate(-598 -3761)">
    <circle id="Ellipse_37" data-name="Ellipse 37" cx="40.5" cy="40.5" r="40.5" transform="translate(598 3761)" fill="#ccf9e8"/>
    <path id="Icon_material-picture-as-pdf" data-name="Icon material-picture-as-pdf" d="M34.05,3H13.35A3.46,3.46,0,0,0,9.9,6.45v20.7a3.46,3.46,0,0,0,3.45,3.45h20.7a3.46,3.46,0,0,0,3.45-3.45V6.45A3.46,3.46,0,0,0,34.05,3ZM19.387,15.937A2.584,2.584,0,0,1,16.8,18.525H15.075v3.45H12.488V11.625H16.8a2.584,2.584,0,0,1,2.587,2.587Zm8.625,3.45a2.584,2.584,0,0,1-2.587,2.587H21.112V11.625h4.313a2.584,2.584,0,0,1,2.587,2.587Zm6.9-5.175H32.325v1.725h2.588v2.588H32.325v3.45H29.737V11.625h5.175ZM15.075,15.937H16.8V14.212H15.075ZM6.45,9.9H3V34.05A3.46,3.46,0,0,0,6.45,37.5H30.6V34.05H6.45ZM23.7,19.387h1.725V14.212H23.7Z" transform="translate(618 3781)" fill="#00e18a"/>
  </g>
</svg>
